<?xml version="1.0" standalone="no"?>
<!DOCTYPE svg PUBLIC "-//W3C//DTD SVG 1.0//EN" "http://www.w3.org/TR/2001/REC-SVG-20010904/DTD/svg10.dtd">
<svg xmlns="http://www.w3.org/2000/svg" xmlns:xlink="http://www.w3.org/1999/xlink" id="body_1" width="80" height="80">

<g transform="matrix(0.04 0 0 0.04002001 0 0)">
	<g transform="matrix(5.827988 0 0 5.827988 -2.0118203 -2.5118628)">
		<g transform="matrix(1 0 0 1 0.074 0.074)">
			<g transform="matrix(1 0 0 1 0 0)">
			</g>
			<g transform="matrix(1 0 0 1 0 0)">
				<g>
                    <path d="M0 171.426C 0 76.75 76.75 0 171.426 0C 266.102 0 342.852 76.75 342.852 171.426C 342.852 266.102 266.102 342.852 171.426 342.852C 76.75 342.852 0 266.102 0 171.426zM171.426 339.247C 264.111 339.247 339.247 264.11102 339.247 171.42601C 339.247 78.741 264.111 3.605 171.426 3.605C 78.741 3.605 3.605 78.741 3.605 171.426C 3.605 264.111 78.741005 339.247 171.426 339.247z" stroke="#FFFFFF" stroke-width="1" fill="#FFDB99" fill-rule="nonzero" stroke-opacity="0" />
                    <path d="M335.995 171.426C 335.995 216.87048 319.92798 255.65977 287.79385 287.79385C 255.65977 319.92798 216.87048 335.995 171.426 335.995C 125.98152 335.995 87.19224 319.92798 55.058144 287.79385C 22.924046 255.65977 6.856995 216.87048 6.8569946 171.426C 6.856995 125.98152 22.924046 87.19224 55.058144 55.058144C 87.19224 22.924046 125.98152 6.856995 171.426 6.8569946C 216.87048 6.856995 255.65977 22.924046 287.79385 55.058144C 319.92798 87.19224 335.995 125.98152 335.995 171.426C 335.995 173.34103 335.9616 175.2555 335.89474 177.16937" stroke="none" fill="#FFDB99" fill-rule="nonzero" />
				</g>
				<g transform="matrix(1 0 0 1 64.847 86.864)">
					<g transform="matrix(1 0 0 1 0 0)">
						<g transform="matrix(1 0 0 1 0 0)">
							<g transform="matrix(1 0 0 1 0 102.085)">
								<g transform="matrix(1 0 0 1 0 0)">
									<g transform="matrix(1 0 0 1 0 0)">
										<g transform="matrix(0.87664473 0 0 0.87664473 -0.8669601 37.695724)">
                                            <path d="M43.4 -32C 43.4 -29.166668 42.4 -26.726667 40.4 -24.68C 38.4 -22.626667 35.483337 -21.150002 31.650002 -20.25C 33.716667 -19.683334 35.283337 -18.76 36.350002 -17.48C 37.416668 -16.193333 37.95 -14.716667 37.95 -13.049999C 37.95 -10.416666 37.126667 -8.133333 35.48 -6.1999993C 33.826668 -4.2666664 31.416668 -2.7766666 28.25 -1.73C 25.083334 -0.67666674 21.266666 -0.15 16.8 -0.15C 15.133333 -0.15 13.799999 -0.20000002 12.799999 -0.3C 12.766666 0.63333327 12.366667 1.3333333 11.599999 1.8C 10.833333 2.266667 9.85 2.5 8.65 2.5C 7.45 2.5 6.6266665 2.2333336 6.1799994 1.7C 5.7266665 1.1666667 5.5333333 0.38333336 5.6 -0.65C 5.9 -5.316667 6.4833336 -10.210001 7.35 -15.33C 8.216666 -20.443335 9.316667 -25.383335 10.65 -30.15C 10.883333 -30.983334 11.35 -31.566668 12.049999 -31.9C 12.75 -32.233337 13.666667 -32.4 14.799999 -32.4C 16.833332 -32.4 17.849998 -31.833336 17.849998 -30.7C 17.849998 -30.233334 17.75 -29.7 17.55 -29.1C 16.683334 -26.500002 15.816668 -22.97667 14.949999 -18.53C 14.083332 -14.076668 13.466665 -9.833334 13.099998 -5.800001C 14.699999 -5.666668 15.999998 -5.6000013 16.999998 -5.6000013C 21.666664 -5.6000013 25.093332 -6.276668 27.279999 -7.630001C 29.46 -8.976668 30.55 -10.700002 30.55 -12.800001C 30.55 -14.266668 29.926666 -15.500002 28.679998 -16.500002C 27.426666 -17.500004 25.333332 -18.050003 22.399998 -18.150002C 21.733332 -18.183334 21.266665 -18.350002 20.999998 -18.650002C 20.733332 -18.950003 20.599998 -19.433336 20.599998 -20.100002C 20.599998 -21.06667 20.8 -21.850002 21.199999 -22.450003C 21.599998 -23.050003 22.333332 -23.366669 23.4 -23.400003C 25.766666 -23.466671 27.91 -23.816671 29.83 -24.450003C 31.743336 -25.083338 33.25 -25.976671 34.35 -27.130003C 35.45 -28.276669 36 -29.616667 36 -31.15C 36 -33.083336 35.050003 -34.61 33.15 -35.73C 31.250002 -36.84333 28.333336 -37.399998 24.400002 -37.399998C 20.833336 -37.399998 17.383335 -36.94 14.050001 -36.019997C 10.716668 -35.106667 7.8833346 -33.949997 5.550001 -32.549995C 4.4833345 -31.916662 3.5833344 -31.599995 2.850001 -31.599995C 2.2500012 -31.599995 1.7933345 -31.809996 1.4800011 -32.229996C 1.1600003 -32.643333 1 -33.166664 1 -33.8C 1 -34.63333 1.1766667 -35.35 1.53 -35.95C 1.8766667 -36.550003 2.7166667 -37.233337 4.05 -38C 6.8500004 -39.600002 10.133333 -40.850002 13.900001 -41.75C 17.666668 -42.65 21.516668 -43.1 25.45 -43.1C 31.483334 -43.1 35.983334 -42.083336 38.95 -40.05C 41.916668 -38.01667 43.4 -35.333336 43.4 -32zM64.3 -11.15C 64.73334 -11.15 65.07333 -10.95 65.32 -10.549999C 65.57333 -10.15 65.7 -9.599999 65.7 -8.9C 65.7 -7.5666666 65.38333 -6.5333333 64.75 -5.7999997C 63.51667 -4.2999997 61.773335 -2.9166665 59.52 -1.6499996C 57.273335 -0.3833332 54.86667 0.25 52.3 0.25C 48.800003 0.25 46.083336 -0.7 44.15 -2.6C 42.216667 -4.5 41.25 -7.1 41.25 -10.4C 41.25 -12.700001 41.733334 -14.84 42.7 -16.82C 43.666668 -18.806667 45.006668 -20.383333 46.72 -21.55C 48.440002 -22.716667 50.38334 -23.3 52.550003 -23.3C 54.483337 -23.3 56.03334 -22.726665 57.200005 -21.58C 58.366673 -20.426666 58.950005 -18.866667 58.950005 -16.9C 58.950005 -14.6 58.123337 -12.626667 56.470005 -10.98C 54.823334 -9.326667 52.033333 -8.016667 48.1 -7.05C 48.933334 -5.516667 50.51667 -4.75 52.85 -4.75C 54.35 -4.75 56.056667 -5.2766666 57.969997 -6.33C 59.89 -7.376667 61.55 -8.75 62.949997 -10.45C 63.35 -10.916667 63.799995 -11.15 64.299995 -11.15zM51.7 -18.4C 50.46667 -18.4 49.42334 -17.683334 48.57 -16.25C 47.723335 -14.816668 47.3 -13.083334 47.3 -11.05L47.3 -11.05L47.3 -10.95C 49.266666 -11.416666 50.816666 -12.116667 51.95 -13.049999C 53.083336 -13.983334 53.650005 -15.066667 53.65 -16.3C 53.650005 -16.933334 53.47334 -17.44 53.120003 -17.82C 52.77334 -18.206667 52.300003 -18.4 51.700005 -18.4zM67.55 0.25C 65.48334 0.25 63.833336 -0.5 62.6 -2C 61.77778 -3.0000002 61.16111 -4.966667 60.75 -7.9C 60.75 -10.566667 61.36667 -13.093333 62.6 -15.48C 63.833336 -17.86 65.473335 -19.776667 67.52 -21.23C 69.566666 -22.676666 71.74333 -23.400002 74.049995 -23.4C 74.78333 -23.400002 75.27333 -23.26 75.52 -22.98C 75.77333 -22.693333 75.98333 -22.183332 76.149994 -21.449999C 76.85 -21.583332 77.58 -21.65 78.34 -21.65C 79.979996 -21.65 80.799995 -21.066666 80.799995 -19.9C 80.799995 -19.2 80.549995 -17.533335 80.049995 -14.9C 79.28333 -11.066667 78.899994 -8.4 78.899994 -6.8999996C 78.899994 -6.3999996 79.02333 -6 79.27 -5.7C 79.52333 -5.4 79.85 -5.25 80.25 -5.25C 80.88333 -5.25 81.65 -5.66 82.55 -6.48C 83.450005 -7.293333 84.66667 -8.616667 86.200005 -10.45C 86.600006 -10.916667 87.05 -11.15 87.55 -11.15C 87.98334 -11.15 88.32333 -10.95 88.57 -10.549999C 88.82333 -10.15 88.95 -9.599999 88.95 -8.9C 88.95 -7.5666666 88.63333 -6.5333333 88 -5.7999997C 86.63333 -4.1 85.183334 -2.6666663 83.65 -1.4999995C 82.11 -0.3333332 80.62666 0.25 79.2 0.25C 78.1 0.25 77.09 -0.12666668 76.17 -0.88C 75.25667 -1.6266668 74.56334 -2.65 74.09 -3.95C 72.363335 -1.1500001 70.183334 0.25 67.55 0.25zM69.340004 -4.8C 70.08 -4.8 70.78334 -5.2333336 71.450005 -6.1000004C 72.11667 -6.966667 72.600006 -8.116667 72.9 -9.55L72.9 -9.55L74.75 -18.75C 73.350006 -18.716667 72.05667 -18.193335 70.87 -17.18C 69.68334 -16.160002 68.74334 -14.816668 68.05 -13.15C 67.350006 -11.483334 67 -9.716667 67 -7.85C 67 -6.816667 67.206665 -6.05 67.62 -5.55C 68.04 -5.05 68.613335 -4.8 69.340004 -4.8zM88.44 0.25C 87.17334 0.25 86.28334 -0.4166667 85.770004 -1.75C 85.25001 -3.0833335 84.990005 -5.2166667 84.990005 -8.15C 84.990005 -12.483334 85.606674 -16.6 86.840004 -20.5C 87.14001 -21.466667 87.63334 -22.176668 88.32001 -22.630001C 89.00001 -23.076668 89.95668 -23.300003 91.19001 -23.300001C 91.856674 -23.300003 92.32335 -23.21667 92.59001 -23.050001C 92.85668 -22.883335 92.99001 -22.566668 92.99001 -22.1C 92.99001 -21.566668 92.74001 -20.366669 92.24001 -18.5C 91.906685 -17.166668 91.640015 -16 91.44001 -15C 91.240005 -14 91.07334 -12.766666 90.94001 -11.3C 92.040016 -14.166668 93.273346 -16.5 94.64001 -18.3C 96.006676 -20.1 97.350006 -21.383333 98.670006 -22.15C 99.98334 -22.916666 101.19001 -23.3 102.29001 -23.3C 104.45668 -23.3 105.54001 -22.216667 105.54001 -20.05C 105.54001 -18.75 105.17335 -16.399998 104.44001 -12.999999C 103.80669 -10.099999 103.49002 -8.183332 103.49001 -7.249999C 103.49002 -5.916666 103.97335 -5.249999 104.94001 -5.249999C 105.60668 -5.249999 106.40002 -5.6599994 107.32001 -6.479999C 108.233345 -7.2933326 109.45668 -8.616666 110.990005 -10.449999C 111.390015 -10.916666 111.84001 -11.149999 112.340004 -11.149999C 112.773346 -11.149999 113.11668 -10.949999 113.37 -10.549998C 113.61668 -10.149999 113.74001 -9.599998 113.740005 -8.899999C 113.74001 -7.5666656 113.42335 -6.5333323 112.79001 -5.7999988C 111.35668 -4.033332 109.81668 -2.583332 108.170006 -1.4499989C 106.51668 -0.3166655 104.640015 0.2500012 102.54001 0.2500012C 100.84001 0.2500012 99.55667 -0.24333215 98.69001 -1.2299988C 97.82335 -2.2099988 97.390015 -3.6333323 97.39001 -5.499999C 97.390015 -6.4333324 97.623344 -8.099999 98.090004 -10.499999C 98.523346 -12.6 98.74001 -14.05 98.740005 -14.849998C 98.74001 -15.383332 98.55668 -15.649999 98.19 -15.649999C 97.756676 -15.649999 97.15001 -15.093332 96.37 -13.979999C 95.58334 -12.859999 94.78334 -11.383332 93.97 -9.549999C 93.15 -7.716666 92.490005 -5.783333 91.99 -3.749999C 91.62334 -2.1833324 91.2 -1.1266658 90.72 -0.57999897C 90.23334 -0.026665658 89.473335 0.250001 88.44 0.250001zM136.89 0.4C 132.45668 0.40000004 128.90668 -0.4433333 126.24 -2.1299999C 123.57333 -3.81 122.24 -6.383333 122.24 -9.849999C 122.24 -11.683332 122.55666 -13.083333 123.189995 -14.049999C 123.823326 -15.016666 124.75666 -15.5 125.99 -15.499999C 126.89 -15.5 127.62334 -15.266666 128.19 -14.799999C 128.75668 -14.333333 129.04001 -13.733333 129.04001 -12.999999C 129.04001 -12.333332 128.99002 -11.749999 128.89001 -11.249999C 128.89001 -11.116666 128.86336 -10.883333 128.81001 -10.549999C 128.76335 -10.216666 128.74002 -9.866667 128.74 -9.499999C 128.74002 -7.9999995 129.49667 -6.8833327 131.01001 -6.149999C 132.53001 -5.416666 134.65668 -5.049999 137.39001 -5.049999C 140.22336 -5.049999 142.44002 -5.5599995 144.04001 -6.579999C 145.64001 -7.5933323 146.44 -9.016665 146.44 -10.849998C 146.44 -11.983332 146.07333 -12.959999 145.34 -13.779999C 144.60666 -14.593333 143.69 -15.276667 142.59 -15.829999C 141.49 -16.376667 139.94 -17.05 137.94 -17.849998C 135.37334 -18.849998 133.28 -19.8 131.66 -20.699999C 130.04668 -21.599998 128.66333 -22.826668 127.51 -24.38C 126.363335 -25.926666 125.79 -27.849998 125.79 -30.15C 125.79 -32.55 126.43 -34.683334 127.71 -36.55C 128.99667 -38.416668 130.84666 -39.86667 133.26 -40.899998C 135.68 -41.933334 138.52333 -42.449997 141.79 -42.449997C 144.22333 -42.449997 146.45667 -42.09333 148.48999 -41.379997C 150.52333 -40.659996 152.14667 -39.566666 153.35999 -38.1C 154.57999 -36.63333 155.18999 -34.833332 155.18999 -32.699997C 155.18999 -30.599998 154.87332 -29.016665 154.23999 -27.949997C 153.81778 -27.238886 152.88443 -26.705553 151.43999 -26.349997C 150.57332 -26.349998 149.84665 -26.616665 149.26 -27.149996C 148.68 -27.68333 148.39 -28.316664 148.39 -29.049995C 148.39 -29.68333 148.44 -30.266663 148.54 -30.799995C 148.64 -31.799995 148.69 -32.43333 148.68999 -32.699997C 148.69 -34.1 148.00665 -35.166664 146.63998 -35.899998C 145.72888 -36.38889 144.02887 -36.755554 141.53998 -36.999996C 138.67331 -36.999996 136.47998 -36.47666 134.95998 -35.429996C 133.44664 -34.376663 132.68997 -32.899994 132.68997 -30.999996C 132.68997 -29.73333 133.07997 -28.649998 133.85997 -27.749996C 134.64664 -26.849998 135.62329 -26.099998 136.78996 -25.499996C 137.95663 -24.899998 139.58997 -24.18333 141.68996 -23.349997C 144.2233 -22.316664 146.25662 -21.383331 147.78996 -20.549997C 149.3233 -19.716663 150.62997 -18.583332 151.70996 -17.149998C 152.79663 -15.716665 153.33997 -13.949999 153.33997 -11.8499975C 153.33997 -7.916664 151.84663 -4.893331 148.85997 -2.7799978C 145.87999 -0.65999925 141.89 0.40000004 136.89 0.4zM167.13 0.25C 163.87001 0.25 161.33002 -0.6766667 159.51001 -2.53C 157.69002 -4.376667 156.78001 -6.816667 156.78001 -9.85C 156.78001 -12.550001 157.31335 -14.916668 158.38002 -16.95C 159.45337 -18.983334 160.8367 -20.550001 162.53001 -21.650002C 164.2367 -22.750002 166.02002 -23.300003 167.88002 -23.300001C 169.71335 -23.300003 171.14001 -22.760002 172.16002 -21.68C 173.18002 -20.593334 173.69003 -19.2 173.69002 -17.5C 173.69003 -16.1 173.38004 -14.916666 172.76003 -13.95C 172.1467 -12.983334 171.34003 -12.500001 170.34003 -12.5C 169.70003 -12.500001 169.19003 -12.650001 168.81003 -12.95C 168.43002 -13.25 168.24002 -13.666667 168.24002 -14.2C 168.24002 -14.433334 168.27336 -14.700001 168.34003 -15C 168.40671 -15.3 168.4567 -15.516666 168.49002 -15.65C 168.6567 -16.15 168.74002 -16.616667 168.74002 -17.05C 168.74002 -17.483334 168.63002 -17.816666 168.41002 -18.05C 168.19669 -18.283333 167.89001 -18.4 167.49002 -18.4C 166.72336 -18.4 166.0067 -18.06 165.34003 -17.38C 164.67337 -16.693333 164.14003 -15.766666 163.74002 -14.599999C 163.33336 -13.433333 163.13002 -12.15 163.13002 -10.75C 163.13002 -6.883333 164.81668 -4.95 168.19002 -4.95C 169.55669 -4.95 171.03003 -5.41 172.61002 -6.33C 174.19669 -7.2433333 175.75336 -8.616667 177.28001 -10.45C 177.68002 -10.916667 178.13004 -11.15 178.63002 -11.15C 179.06335 -11.15 179.40668 -10.95 179.66002 -10.549999C 179.90668 -10.15 180.03001 -9.599999 180.03001 -8.9C 180.03001 -7.633333 179.71667 -6.6 179.09001 -5.7999997C 177.52335 -3.8666663 175.64668 -2.3766665 173.46 -1.3299999C 171.28001 -0.27666658 169.17001 0.25000012 167.13 0.25000012zM198.28 -11.15C 198.71333 -11.15 199.05667 -10.95 199.31 -10.549999C 199.55667 -10.15 199.68 -9.599999 199.68 -8.9C 199.68 -7.5666666 199.36333 -6.5333333 198.73 -5.7999997C 197.49666 -4.2999997 195.75665 -2.9166665 193.51 -1.6499996C 191.25665 -0.38333297 188.84666 0.25000036 186.28 0.25000036C 182.78 0.25000036 180.06334 -0.6999996 178.13 -2.5999994C 176.19669 -4.4999995 175.23001 -7.0999994 175.23001 -10.4C 175.23001 -12.700001 175.71335 -14.84 176.68001 -16.82C 177.64668 -18.806667 178.99002 -20.383333 180.71 -21.55C 182.42334 -22.716667 184.36334 -23.3 186.53001 -23.3C 188.46335 -23.3 190.01334 -22.726665 191.18001 -21.58C 192.34668 -20.426666 192.93002 -18.866667 192.93001 -16.9C 192.93002 -14.6 192.10669 -12.626667 190.46 -10.98C 188.80667 -9.326667 186.01334 -8.016666 182.08 -7.049999C 182.91333 -5.516666 184.49667 -4.749999 186.83 -4.749999C 188.33 -4.749999 190.04001 -5.2766657 191.96 -6.329999C 193.87335 -7.376666 195.53001 -8.75 196.93001 -10.449999C 197.33002 -10.916666 197.78001 -11.149999 198.28001 -11.149999zM185.68 -18.4C 184.44666 -18.4 183.40666 -17.683334 182.56 -16.25C 181.70667 -14.816668 181.28 -13.083334 181.28 -11.05L181.28 -11.05L181.28 -10.95C 183.24667 -11.416666 184.79666 -12.116667 185.93 -13.049999C 187.06332 -13.983334 187.62999 -15.066667 187.62999 -16.3C 187.62999 -16.933334 187.45667 -17.44 187.10999 -17.82C 186.75665 -18.206667 186.28 -18.4 185.68 -18.4zM199.18 0.25C 197.91333 0.25 197.02335 -0.4166667 196.51 -1.75C 195.98999 -3.0833335 195.73 -5.2166667 195.73 -8.15C 195.73 -12.483334 196.34666 -16.6 197.58 -20.5C 197.88 -21.466667 198.37334 -22.176668 199.06 -22.630001C 199.74 -23.076668 200.69667 -23.300003 201.93 -23.300001C 202.59666 -23.300003 203.06332 -23.21667 203.32999 -23.050001C 203.59665 -22.883335 203.72998 -22.566668 203.72998 -22.1C 203.72998 -21.566668 203.47998 -20.366669 202.97998 -18.5C 202.64667 -17.166668 202.37999 -16 202.17998 -15C 201.97998 -14 201.81332 -12.766666 201.67998 -11.3C 202.77997 -14.166668 204.0133 -16.5 205.37997 -18.3C 206.74664 -20.1 208.08998 -21.383333 209.40997 -22.15C 210.72331 -22.916666 211.92998 -23.3 213.02997 -23.3C 215.19664 -23.3 216.27997 -22.216667 216.27997 -20.05C 216.27997 -18.75 215.9133 -16.399998 215.17996 -12.999999C 214.54663 -10.099999 214.22997 -8.183332 214.22997 -7.249999C 214.22997 -5.916666 214.7133 -5.249999 215.67996 -5.249999C 216.34663 -5.249999 217.13997 -5.6599994 218.05997 -6.479999C 218.97331 -7.2933326 220.19664 -8.616666 221.72997 -10.449999C 222.12997 -10.916666 222.57999 -11.149999 223.07997 -11.149999C 223.5133 -11.149999 223.85664 -10.949999 224.10997 -10.549998C 224.35664 -10.149999 224.47998 -9.599998 224.47997 -8.899999C 224.47998 -7.5666656 224.16331 -6.5333323 223.52997 -5.7999988C 222.09665 -4.033332 220.55664 -2.583332 218.90997 -1.4499989C 217.25665 -0.3166655 215.37997 0.2500012 213.27997 0.2500012C 211.57997 0.2500012 210.29663 -0.24333215 209.42996 -1.2299988C 208.5633 -2.2099988 208.12997 -3.6333323 208.12996 -5.499999C 208.12997 -6.4333324 208.3633 -8.099999 208.82996 -10.499999C 209.26329 -12.6 209.47995 -14.05 209.47995 -14.849998C 209.47995 -15.383332 209.29663 -15.649999 208.92995 -15.649999C 208.49661 -15.649999 207.88995 -15.093332 207.10994 -13.979999C 206.32329 -12.859999 205.52328 -11.383332 204.70995 -9.549999C 203.88995 -7.716666 203.22995 -5.783333 202.72995 -3.749999C 202.36328 -2.1833324 201.93996 -1.1266658 201.45995 -0.57999897C 200.9733 -0.026665658 200.21329 0.250001 199.17995 0.250001zM242.73 -11.15C 243.16333 -11.15 243.50333 -10.95 243.75 -10.549999C 244.00334 -10.15 244.13 -9.599999 244.13 -8.9C 244.13 -7.5666666 243.81335 -6.5333333 243.18001 -5.7999997C 241.94669 -4.2999997 240.20334 -2.9166665 237.95001 -1.6499996C 235.70337 -0.38333297 233.29669 0.25000036 230.73001 0.25000036C 227.23001 0.25000036 224.51335 -0.6999996 222.58002 -2.5999994C 220.6467 -4.4999995 219.68002 -7.0999994 219.68002 -10.4C 219.68002 -12.700001 220.16336 -14.84 221.13002 -16.82C 222.0967 -18.806667 223.4367 -20.383333 225.15002 -21.55C 226.87003 -22.716667 228.81337 -23.3 230.98003 -23.3C 232.91336 -23.3 234.46335 -22.726665 235.63002 -21.58C 236.79669 -20.426666 237.38004 -18.866667 237.38002 -16.9C 237.38004 -14.6 236.55338 -12.626667 234.90002 -10.98C 233.25336 -9.326667 230.46336 -8.016666 226.53003 -7.049999C 227.36337 -5.516666 228.94672 -4.749999 231.28003 -4.749999C 232.78003 -4.749999 234.4867 -5.2766657 236.40002 -6.329999C 238.32004 -7.376666 239.98003 -8.75 241.38002 -10.449999C 241.78003 -10.916666 242.23004 -11.149999 242.73003 -11.149999zM230.12999 -18.4C 228.89667 -18.4 227.85333 -17.683334 226.99998 -16.25C 226.15332 -14.816668 225.73 -13.083334 225.72998 -11.05L225.72998 -11.05L225.72998 -10.95C 227.69666 -11.416666 229.24664 -12.116667 230.37997 -13.049999C 231.5133 -13.983334 232.07999 -15.066667 232.07997 -16.3C 232.07999 -16.933334 231.90332 -17.44 231.54997 -17.82C 231.20331 -18.206667 230.72998 -18.4 230.12997 -18.4z" stroke="none" fill="#1F0F53" fill-rule="nonzero" />
										</g>
									</g>
									<g transform="matrix(1 0 0 1 0 49.413)">
										<g transform="matrix(0.47002664 0 0 0.47002664 -0.93019176 17.390985)">
                                            <path d="M17.25 0.3C 14.85 0.3 12.743334 0.06666669 10.93 -0.39999998C 9.110001 -0.8666667 7.5933332 -1.7333333 6.38 -3C 5.1600003 -4.266667 4.25 -6.1333337 3.65 -8.6C 3.0500002 -11.066668 2.75 -14.300001 2.75 -18.3C 2.75 -22.300001 3.0500002 -25.543335 3.65 -28.029999C 4.25 -30.509998 5.166667 -32.41 6.4 -33.73C 7.633333 -35.043335 9.150001 -35.943336 10.950001 -36.43C 12.750001 -36.910004 14.85 -37.15 17.25 -37.15C 19.716667 -37.15 21.86 -36.910004 23.68 -36.43C 25.493334 -35.943336 27 -35.043335 28.2 -33.73C 29.400002 -32.410004 30.300001 -30.510002 30.900002 -28.029999C 31.500002 -25.543335 31.800001 -22.300001 31.800001 -18.3C 31.800001 -15.633331 31.500002 -12.399999 30.900002 -8.599999C 30.300001 -6.133333 29.393333 -4.266667 28.18 -3C 26.960001 -1.7333333 25.443335 -0.86666673 23.630001 -0.4000001C 21.810001 0.06666656 19.683334 0.2999999 17.25 0.2999999L17.25 0.2999999L17.25 0.3zM17.25 -4.2C 18.983334 -4.2 20.460001 -4.383333 21.68 -4.75C 22.893333 -5.116667 23.876667 -5.7933335 24.630001 -6.7799997C 25.376669 -7.76 25.916668 -9.176666 26.250002 -11.03C 26.583336 -12.876667 26.750004 -15.299999 26.750002 -18.3C 26.750004 -21.466667 26.57667 -24 26.230001 -25.9C 25.876669 -27.800001 25.333336 -29.233335 24.600002 -30.2C 23.866669 -31.16667 22.893335 -31.81667 21.680002 -32.15C 20.460003 -32.483337 18.983337 -32.65 17.250002 -32.65C 15.61667 -32.65 14.200003 -32.483337 13.000002 -32.15C 11.800002 -31.81667 10.816669 -31.16667 10.050002 -30.2C 9.283337 -29.233335 8.710003 -27.800003 8.330002 -25.900002C 7.9433355 -24.000002 7.750002 -21.466667 7.750002 -18.300001C 7.750002 -15.300001 7.9066687 -12.876668 8.220002 -11.030001C 8.540002 -9.176668 9.076669 -7.760001 9.830002 -6.7800007C 10.576669 -5.793334 11.560001 -5.1166677 12.780002 -4.750001C 13.993336 -4.383334 15.4833355 -4.200001 17.250002 -4.200001zM43 0L38 0L38 -26.75L42 -26.75L43 -23.85C 44.2 -24.716667 45.623333 -25.493334 47.27 -26.18C 48.923336 -26.860003 50.633335 -27.200003 52.4 -27.2C 54.4 -27.200003 56.006668 -26.776669 57.22 -25.93C 58.440002 -25.076668 59.31667 -23.95 59.850002 -22.55C 60.383335 -21.15 60.65 -19.633333 60.65 -18L60.65 -18L60.65 0L55.65 0L55.65 -17.4C 55.65 -18.466667 55.440002 -19.393333 55.02 -20.18C 54.60667 -20.960001 54.033337 -21.566668 53.3 -22C 52.56667 -22.433334 51.66667 -22.650002 50.6 -22.65C 49.6 -22.650002 48.673332 -22.550001 47.82 -22.35C 46.973335 -22.150002 46.166668 -21.876667 45.4 -21.53C 44.633335 -21.176666 43.833336 -20.75 43 -20.25L43 -20.25L43 0zM78.05 0.3C 75.216675 0.3 72.95667 -0.116666645 71.27 -0.95C 69.590004 -1.7833333 68.39 -3.1933334 67.67 -5.18C 66.95 -7.16 66.59 -9.9 66.59 -13.4C 66.59 -16.966667 66.95 -19.743334 67.67 -21.73C 68.39 -23.710001 69.583336 -25.1 71.25 -25.9C 72.91667 -26.7 75.16667 -27.100002 78 -27.1C 80.46667 -27.100002 82.456665 -26.843334 83.97 -26.33C 85.490005 -25.81 86.60667 -24.893333 87.32 -23.58C 88.04 -22.26 88.4 -20.433334 88.4 -18.1C 88.4 -16.466667 88.07333 -15.166668 87.42 -14.200001C 86.77333 -13.233335 85.85667 -12.533335 84.67 -12.1C 83.490005 -11.666668 82.083336 -11.450001 80.45 -11.450001L80.45 -11.450001L71.59 -11.450001C 71.63 -9.516668 71.85666 -7.976668 72.27 -6.830001C 72.69 -5.6766677 73.44 -4.843334 74.52 -4.330001C 75.60666 -3.810001 77.2 -3.550001 79.299995 -3.550001L79.299995 -3.550001L87.649994 -3.550001L87.649994 -0.5500009C 86.21666 -0.35000092 84.74999 -0.15666758 83.24999 0.029999077C 81.75 0.20999971 80.01667 0.3 78.05 0.3zM71.55 -14.599999L80 -14.599999C 81.333336 -14.6 82.316666 -14.85 82.95 -15.349999C 83.58333 -15.849999 83.899994 -16.766666 83.899994 -18.099998C 83.899994 -18.988888 83.706665 -20.038887 83.31999 -21.249998C 82.939995 -22.016666 82.316666 -22.566666 81.44999 -22.899998C 80.58333 -23.233332 79.43333 -23.399998 77.99999 -23.399998C 76.36666 -23.399998 75.07333 -23.149998 74.119995 -22.649998C 73.17333 -22.149998 72.50667 -21.266665 72.119995 -19.999998C 71.74 -18.733332 71.549995 -16.933332 71.549995 -14.599998zM122.19 0L107.94 0L107.94 -36.85L121.64 -36.85C 124.94 -36.85 127.4 -36.05 129.02 -34.449997C 130.63333 -32.85 131.44 -30.48333 131.44 -27.349997C 131.44 -25.816666 131.21667 -24.493332 130.77 -23.379997C 130.31668 -22.259998 129.70001 -21.34333 128.92 -20.629997C 128.13333 -19.909998 127.25667 -19.416664 126.29 -19.149998C 126.990005 -18.949999 127.716675 -18.649998 128.47 -18.249998C 129.21667 -17.849998 129.91333 -17.289997 130.56 -16.569998C 131.21333 -15.856665 131.73999 -14.976665 132.14 -13.929997C 132.54001 -12.876664 132.74 -11.633331 132.74 -10.199997C 132.74 -7.633331 132.31668 -5.6099973 131.47 -4.129997C 130.61667 -2.64333 129.40668 -1.5833302 127.840004 -0.9499967C 126.27334 -0.3166634 124.39001 3.2782555E-06 122.19 3.2782555E-06zM112.990005 -16.95L112.990005 -4.5L122.04001 -4.5C 123.24002 -4.5 124.273346 -4.7 125.14001 -5.1C 125.71779 -5.366667 126.40112 -6.033334 127.19001 -7.1C 127.69002 -8.033334 127.94002 -9.35 127.94001 -11.05C 127.94002 -12.283334 127.67335 -13.343334 127.14001 -14.2300005C 126.606674 -15.110001 125.90001 -15.783334 125.020004 -16.25C 124.13335 -16.716667 123.14001 -16.95 122.04 -16.95L122.04 -16.95L112.99 -16.95zM112.990005 -32.35L112.990005 -20.849998L121.79001 -20.849998C 123.22335 -20.849998 124.38335 -21.376667 125.27001 -22.429998C 126.15001 -23.476665 126.60668 -24.849998 126.640015 -26.55C 126.70669 -28.716667 126.25668 -30.226667 125.290016 -31.08C 124.32335 -31.926666 123.09002 -32.35 121.59002 -32.35L121.59002 -32.35L112.99002 -32.35zM148.89 0.3C 146.05667 0.3 143.79666 -0.116666645 142.11 -0.95C 140.43 -1.7833333 139.23 -3.1933334 138.51 -5.18C 137.79666 -7.16 137.44 -9.9 137.43999 -13.4C 137.44 -16.966667 137.79666 -19.743334 138.51 -21.73C 139.23 -23.710001 140.42334 -25.1 142.09 -25.9C 143.75667 -26.7 146.00667 -27.100002 148.84 -27.1C 151.30667 -27.100002 153.29666 -26.843334 154.81 -26.33C 156.33 -25.81 157.44667 -24.893333 158.16 -23.58C 158.88 -22.26 159.24 -20.433334 159.24 -18.1C 159.24 -16.466667 158.91335 -15.166668 158.26001 -14.200001C 157.61334 -13.233335 156.69669 -12.533335 155.51001 -12.1C 154.33002 -11.666668 152.92334 -11.450001 151.29001 -11.450001L151.29001 -11.450001L142.44 -11.450001C 142.47334 -9.516668 142.69667 -7.976668 143.11 -6.830001C 143.53001 -5.6766677 144.28001 -4.843334 145.36 -4.330001C 146.44667 -3.810001 148.04001 -3.550001 150.14 -3.550001L150.14 -3.550001L158.49 -3.550001L158.49 -0.5500009C 157.05667 -0.35000092 155.59001 -0.15666758 154.09001 0.029999077C 152.59001 0.20999908 150.85669 0.2999991 148.89001 0.2999991zM142.39 -14.599999L150.84 -14.599999C 152.17334 -14.6 153.15666 -14.85 153.79 -15.349999C 154.42332 -15.849999 154.73999 -16.766666 154.73999 -18.099998C 154.73999 -18.988888 154.54666 -20.038887 154.15999 -21.249998C 153.78 -22.016666 153.15666 -22.566666 152.29 -22.899998C 151.42332 -23.233332 150.27333 -23.399998 148.84 -23.399998C 147.20667 -23.399998 145.91333 -23.149998 144.95999 -22.649998C 144.01334 -22.149998 143.34666 -21.266665 142.95999 -19.999998C 142.57999 -18.733332 142.38998 -16.933332 142.38998 -14.599998zM170.69 0.3C 168.72334 0.3 167.09668 -0.29333332 165.81 -1.48C 164.53 -2.66 163.89 -4.3 163.89 -6.4L163.89 -6.4L163.89 -8.5C 163.89 -10.566668 164.59666 -12.26 166.01 -13.58C 167.43001 -14.893333 169.57333 -15.55 172.43999 -15.55L172.43999 -15.55L180.77998 -15.55L180.77998 -18.35C 180.77998 -19.383333 180.60666 -20.26 180.25998 -20.98C 179.91331 -21.693333 179.27332 -22.233334 178.33998 -22.6C 177.71777 -22.844444 176.33444 -23.027779 174.18999 -23.15L174.18999 -23.15L165.98999 -23.15L165.98999 -26.1C 167.18332 -26.366669 168.59 -26.600002 170.20999 -26.800001C 171.82999 -27.000002 173.72333 -27.116669 175.88998 -27.150002C 178.09 -27.150003 179.93 -26.87667 181.40999 -26.330002C 182.89665 -25.776669 184.00665 -24.876669 184.73999 -23.630001C 185.47333 -22.376669 185.84 -20.71667 185.84 -18.650002L185.84 -18.650002L185.84 0L181.89 0L181.04 -2.95C 180.84 -2.8166666 180.42 -2.5766668 179.78 -2.23C 179.15334 -1.8766668 178.34668 -1.5000001 177.36 -1.1C 176.38 -0.70000005 175.31334 -0.36666667 174.16 -0.100000024C 173.01334 0.16666664 171.85667 0.29999998 170.69 0.29999998zM172.99 -3.3500001C 173.49002 -3.316667 174.08002 -3.366667 174.76001 -3.5000002C 175.21335 -3.5888891 175.89668 -3.7488892 176.81001 -3.9800003C 177.49669 -4.160001 178.13002 -4.3500004 178.71 -4.55C 179.29668 -4.7500005 179.78001 -4.926667 180.16 -5.08C 180.54668 -5.2266665 180.75334 -5.3166666 180.78 -5.35L180.78 -5.35L180.78 -13.049999L173.78 -12.749999C 172.05334 -12.65 170.81334 -12.216666 170.06 -11.449999C 169.31334 -10.683332 168.94 -9.683332 168.94 -8.449999L168.94 -8.449999L168.94 -7.249999C 168.94 -6.283333 169.13667 -5.5099993 169.53 -4.9299994C 169.93668 -4.343333 170.44667 -3.9333327 171.06 -3.6999993C 171.68 -3.4666662 172.32333 -3.3499997 172.98999 -3.3499994zM197.63 0L192.63 0L192.63 -26.75L196.63 -26.75L197.63 -23.85C 198.83002 -24.716667 200.25668 -25.493334 201.91 -26.18C 203.55667 -26.860003 205.26334 -27.200003 207.03 -27.2C 209.03 -27.200003 210.64001 -26.776669 211.86 -25.93C 213.07333 -25.076668 213.94667 -23.95 214.48 -22.55C 215.01334 -21.15 215.28 -19.633333 215.28 -18L215.28 -18L215.28 0L210.28 0L210.28 -17.4C 210.28001 -18.466667 210.07335 -19.393333 209.66 -20.18C 209.24 -20.960001 208.66333 -21.566668 207.93001 -22C 207.19669 -22.433334 206.29668 -22.650002 205.23001 -22.65C 204.23001 -22.650002 203.30667 -22.550001 202.46 -22.35C 201.60669 -22.150002 200.79669 -21.876667 200.03001 -21.53C 199.26337 -21.176666 198.46336 -20.75 197.63002 -20.25L197.63002 -20.25L197.63002 0zM238.58 0L233.38 0L245.68001 -36.85L252.08 -36.85L264.38 0L259.13 0L255.88 -9.65L241.78 -9.65L238.58 0zM248.83 -32.45L242.98 -14.200001L254.62999 -14.200001L248.82999 -32.45zM281.63 0L277.58002 0C 275.78003 0 274.28668 -0.29333335 273.1 -0.88C 271.92004 -1.46 271.05334 -2.4 270.5 -3.6999998C 269.95334 -5 269.69666 -6.733333 269.73 -8.9L269.73 -8.9L269.93002 -22.65L265.68002 -22.65L265.68002 -25.9L270.03003 -26.75L270.78003 -34.25L274.73004 -34.25L274.73004 -26.75L281.98004 -26.75L281.98004 -22.65L274.73004 -22.65L274.73004 -8.95C 274.73004 -7.916667 274.83005 -7.0833335 275.03003 -6.45C 275.16336 -6.0277777 275.4467 -5.544444 275.88004 -5C 276.2467 -4.666667 276.6467 -4.4266667 277.08005 -4.2799997C 277.51337 -4.1266665 277.93005 -4.033333 278.33005 -3.9999998L278.33005 -3.9999998L281.63004 -3.6999998L281.63004 0zM303.47 0L298.27 0L310.56998 -36.85L316.96997 -36.85L329.27 0L324.02 0L320.77 -9.65L306.66998 -9.65L303.47 0zM313.72 -32.45L307.87 -14.200001L319.52 -14.200001L313.72 -32.45zM360.87 0L355.82 0L355.82 -32.35L344.82 -32.35L344.82 -36.85L371.87 -36.85L371.87 -32.35L360.87 -32.35L360.87 0zM380.56 -31.25L376.86 -31.25C 376.26 -31.25 375.96 -31.533333 375.96 -32.1L375.96 -32.1L375.96 -36.3C 375.96 -36.9 376.26 -37.2 376.86 -37.2L376.86 -37.2L380.56 -37.2C 380.82666 -37.2 381.02667 -37.11667 381.16 -36.95C 381.29337 -36.783333 381.36005 -36.566666 381.36002 -36.3L381.36002 -36.3L381.36002 -32.1C 381.36005 -31.533333 381.09338 -31.249998 380.56003 -31.249998zM381.16 0L376.16 0L376.16 -26.75L381.16 -26.75L381.16 0zM393.16 0L388.16 0L388.16 -26.75L392.16 -26.75L393.16 -23.85C 394.46002 -24.750002 395.89334 -25.533335 397.46 -26.2C 399.02667 -26.866669 400.82666 -27.200003 402.86 -27.2C 404.52667 -27.200003 405.94333 -26.833336 407.11 -26.1C 407.8878 -25.61111 408.77112 -24.677776 409.75998 -23.300001C 410.56 -23.900002 411.52667 -24.500002 412.65997 -25.1C 413.41553 -25.5 414.63217 -26 416.30997 -26.6C 417.61 -27.000002 418.86 -27.200003 420.05997 -27.2C 422.05997 -27.200003 423.68665 -26.793335 424.93997 -25.980001C 426.18665 -25.160004 427.08664 -24.043335 427.63998 -22.630001C 428.18668 -21.210001 428.46002 -19.6 428.46 -17.800001L428.46 -17.800001L428.46 0L423.46 0L423.46 -17.4C 423.46002 -18.466667 423.25336 -19.393333 422.84 -20.18C 422.41998 -20.960001 421.83667 -21.566668 421.09 -22C 420.33667 -22.433334 419.42667 -22.650002 418.36 -22.65C 417.02667 -22.650002 415.66 -22.393333 414.25998 -21.88C 412.86 -21.359999 411.57666 -20.733334 410.40997 -20C 410.54333 -19.566668 410.6433 -19.126667 410.70996 -18.68C 410.77664 -18.226667 410.81 -17.783333 410.80997 -17.35L410.80997 -17.35L410.80997 0L405.80997 0L405.80997 -17.4C 405.80997 -18.466667 405.6033 -19.393333 405.18997 -20.18C 404.77 -20.960001 404.19333 -21.566668 403.45996 -22C 402.72665 -22.433334 401.82666 -22.650002 400.75995 -22.65C 399.75995 -22.650002 398.83664 -22.550001 397.98996 -22.35C 397.13666 -22.150002 396.32666 -21.876667 395.55997 -21.53C 394.79333 -21.176666 393.99335 -20.75 393.15997 -20.25L393.15997 -20.25L393.15997 0zM445.86002 0.3C 443.02667 0.3 440.7667 -0.116666645 439.08002 -0.95C 437.40005 -1.7833333 436.20004 -3.1933334 435.48 -5.18C 434.7667 -7.16 434.41003 -9.9 434.41 -13.4C 434.41003 -16.966667 434.7667 -19.743334 435.48 -21.73C 436.2 -23.710001 437.39334 -25.1 439.06 -25.9C 440.72668 -26.7 442.97668 -27.100002 445.81 -27.1C 448.27667 -27.100002 450.26666 -26.843334 451.78 -26.33C 453.3 -25.81 454.4167 -24.893333 455.13 -23.58C 455.85004 -22.26 456.21002 -20.433334 456.21 -18.1C 456.21002 -16.466667 455.88336 -15.166668 455.22998 -14.200001C 454.5833 -13.233335 453.66666 -12.533335 452.47998 -12.1C 451.3 -11.666668 449.8933 -11.450001 448.25998 -11.450001L448.25998 -11.450001L439.40997 -11.450001C 439.44333 -9.516668 439.66666 -7.976668 440.08 -6.830001C 440.5 -5.6766677 441.25 -4.843334 442.33 -4.330001C 443.41666 -3.810001 445.01 -3.550001 447.11 -3.550001L447.11 -3.550001L455.46 -3.550001L455.46 -0.5500009C 454.02667 -0.35000092 452.56 -0.15666758 451.06 0.029999077C 449.56 0.20999908 447.82666 0.2999991 445.86 0.2999991zM439.36002 -14.599999L447.81003 -14.599999C 449.14337 -14.6 450.1267 -14.85 450.76004 -15.349999C 451.3934 -15.849999 451.71008 -16.766666 451.71005 -18.099998C 451.71002 -18.988888 451.51672 -20.038887 451.13007 -21.249998C 450.75006 -22.016666 450.12674 -22.566666 449.26007 -22.899998C 448.39343 -23.233332 447.24344 -23.399998 445.81006 -23.399998C 444.17673 -23.399998 442.8834 -23.149998 441.93005 -22.649998C 440.9834 -22.149998 440.3167 -21.266665 439.93005 -19.999998C 439.55005 -18.733332 439.36005 -16.933332 439.36005 -14.599998z" stroke="none" fill="#1F0F53" fill-rule="nonzero" />
										</g>
									</g>
								</g>
							</g>
							<g transform="matrix(1 0 0 1 60.361 0)">
								<g transform="matrix(0.9490251 0 0 0.9490251 -0.9490251 0.00018463242)">
                                    <path d="M98.334 28.896C 98.694 21.589 96.098 14.161 90.499 8.594C 80.012 -1.8179998 63.066 -1.7680006 52.652 8.717999C 48.31089 13.076149 45.612415 18.802765 45.015 24.925C 43.946 29.664 41.605 34.168 37.933 37.867C 34.258 41.565002 29.767998 43.936 25.042 45.037003C 18.922596 45.675728 13.212461 48.411377 8.88 52.78C -1.5339994 63.267 -1.4779997 80.212 9.008 90.625C 14.620001 96.201004 22.08 98.745 29.401001 98.327L29.401001 98.327L29.355001 98.443C 44.457 97.846 62.78 90.896 76.978004 76.604004C 91.177 62.311005 98.01201 43.936005 98.507 28.829002L98.507 28.829002L98.33401 28.896002L98.334 28.896zM55.924 28.279C 51.183 51.697998 30.424 56.126 25.398 56.84C 25.228 56.892 25.049 57 24.863 57L24.863 57L24.777 57C 22.793001 57 22.634 55.154 22.629 55.077C 22.579 54.421 22.913 53.086998 24.535 52.878998C 28.364 52.39 47.683 48.846996 52.004997 27.498999C 52.22461 26.416306 53.276833 25.713781 54.360996 25.925999C 54.880478 26.030407 55.33713 26.33709 55.630314 26.77846C 55.9235 27.219831 56.029152 27.759666 55.923996 28.279z" stroke="none" fill="#1F0F53" fill-rule="nonzero" />
								</g>
							</g>
						</g>
					</g>
				</g>
			</g>
		</g>
	</g>
</g>
</svg>